# xmcd
#
# Track frame offsets:
#	150
#	22317
#	41110
#	63207
#
# Disc length: 1089 seconds
#
# Revision: 1
# Processed by: cddbd v1.5PL3 Copyright (c) Steve Scherf et al.
# Submitted via: CDex 1.50Beta5
#
DISCID=33043f04
DTITLE=meg - スキャンティ ブルース
DYEAR=2002
DGENRE=Pop
TTITLE0=スキャンティ ブルース
TTITLE1=スキャンティ ブルース(”HAIKARA”rock taste)
TTITLE2=スキャンティ ブルース-Instrumental-
TTITLE3=スキャンティ ブルース(”HAIKARA”rock taste)-Instrumental-
EXTD=
EXTT0=
EXTT1=
EXTT2=
EXTT3=
PLAYORDER=
